<?xml version="1.0" standalone="no"?>
<!DOCTYPE svg PUBLIC "-//W3C//DTD SVG 20010904//EN"
 "http://www.w3.org/TR/2001/REC-SVG-20010904/DTD/svg10.dtd">
<svg version="1.0" xmlns="http://www.w3.org/2000/svg"
 width="143.000000pt" height="143.000000pt" viewBox="0 0 143.000000 143.000000"
 preserveAspectRatio="xMidYMid meet">
<metadata>
Created by potrace 1.11, written by Peter Selinger 2001-2013
</metadata>
<g transform="translate(0.000000,143.000000) scale(0.100000,-0.100000)"
fill="#000000" stroke="none">
<path d="M853 1350 c-101 -33 -173 -116 -189 -217 -10 -68 3 -124 46 -190 l40
-61 -61 -127 c-33 -70 -64 -123 -68 -119 -5 5 -72 119 -151 254 -78 135 -144
247 -147 249 -2 3 -75 5 -163 5 -122 1 -160 -2 -160 -11 0 -7 10 -13 23 -14
68 -2 107 -18 119 -47 12 -32 17 -682 5 -752 -9 -55 -24 -71 -74 -79 -25 -4
-39 -12 -41 -24 -3 -16 10 -17 162 -17 91 0 166 4 166 8 0 5 -21 15 -47 23
-36 11 -52 22 -67 48 -19 33 -20 54 -21 373 0 281 2 336 13 321 27 -37 302
-513 302 -523 0 -6 -18 -46 -39 -89 -43 -85 -41 -101 12 -101 18 0 67 -24 134
-66 172 -108 219 -127 321 -127 125 0 228 35 308 106 78 67 144 208 144 304 0
100 -100 221 -295 356 l-90 63 1 72 c2 87 16 108 80 118 25 3 44 12 44 19 0 9
-41 12 -160 14 l-160 1 0 -24 c0 -13 -3 -32 -6 -41 -6 -14 -8 -13 -21 6 -15
20 -20 99 -9 146 24 107 135 157 252 113 62 -24 128 -111 140 -187 7 -46 12
-55 27 -50 6 2 12 23 13 48 1 24 5 71 8 104 12 97 12 108 0 112 -6 2 -16 -8
-22 -22 -14 -30 -26 -29 -122 10 -83 33 -176 39 -247 15z m27 -711 c0 -270 -3
-335 -15 -358 -15 -30 -33 -41 -66 -41 -10 0 -19 -6 -19 -14 0 -11 33 -14 175
-14 143 0 175 3 175 14 0 8 -9 14 -19 14 -11 0 -33 11 -48 24 l-28 24 -3 162
-2 161 41 -23 c84 -47 150 -131 162 -206 3 -18 -2 -58 -11 -90 -29 -101 -134
-181 -245 -186 -139 -6 -269 69 -327 189 -33 68 -34 121 -4 212 32 97 214 474
226 467 4 -3 8 -154 8 -335z"/>
</g>
</svg>
